<?xml version="1.0" encoding="UTF-8" standalone="no"?>
<!-- Uploaded to: SVG Repo, www.svgrepo.com, Generator: SVG Repo Mixer Tools -->

<svg
   fill="#000000"
   width="800px"
   height="800px"
   viewBox="0 0 24 24"
   version="1.1"
   id="svg1"
   sodipodi:docname="audio icon.svg"
   inkscape:version="1.4.3 (0d15f75, 2025-12-25)"
   xmlns:inkscape="http://www.inkscape.org/namespaces/inkscape"
   xmlns:sodipodi="http://sodipodi.sourceforge.net/DTD/sodipodi-0.dtd"
   xmlns="http://www.w3.org/2000/svg"
   xmlns:svg="http://www.w3.org/2000/svg">
  <defs
     id="defs1" />
  <sodipodi:namedview
     id="namedview1"
     pagecolor="#ffffff"
     bordercolor="#000000"
     borderopacity="0.25"
     inkscape:showpageshadow="2"
     inkscape:pageopacity="0.0"
     inkscape:pagecheckerboard="0"
     inkscape:deskcolor="#d1d1d1"
     inkscape:zoom="0.8075"
     inkscape:cx="399.3808"
     inkscape:cy="400"
     inkscape:window-width="1536"
     inkscape:window-height="890"
     inkscape:window-x="-6"
     inkscape:window-y="-6"
     inkscape:window-maximized="1"
     inkscape:current-layer="svg1" />
  <path
     d="M13,4V20a1,1,0,0,1-2,0V4a1,1,0,0,1,2,0ZM8,5A1,1,0,0,0,7,6V18a1,1,0,0,0,2,0V6A1,1,0,0,0,8,5ZM4,7A1,1,0,0,0,3,8v8a1,1,0,0,0,2,0V8A1,1,0,0,0,4,7ZM16,5a1,1,0,0,0-1,1V18a1,1,0,0,0,2,0V6A1,1,0,0,0,16,5Zm4,2a1,1,0,0,0-1,1v8a1,1,0,0,0,2,0V8A1,1,0,0,0,20,7Z"
     id="path1"
     style="fill:#ffffff;fill-opacity:1" />
</svg>
