<?xml version="1.0" encoding="UTF-8"?>
<svg xmlns="http://www.w3.org/2000/svg" version="1.1" viewBox="0 0 1417.3 1417.3">
  <!-- Generator: Adobe Illustrator 29.6.1, SVG Export Plug-In . SVG Version: 2.1.1 Build 9)  -->
  <defs>
    <style>
      .st0 {
        fill: #fff;
      }

      .st1 {
        fill: #231f20;
      }

      .st2 {
        fill: #f16531;
      }
    </style>
  </defs>
  <g id="Type">
    <polygon class="st2" points="563.7 1121.1 806.6 1121.1 813.7 1105.5 563.7 1105.5 563.7 1121.1"/>
    <g>
      <path d="M359.1,934.5c-3.3.4-7.2.7-11.8.7s-9.6-1-14-2.9c-4.3-1.9-8.1-4.5-11.2-7.8-3.2-3.3-5.6-6.9-7.3-10.9-1.7-4-2.6-8-2.6-12.1s.9-9.2,2.7-13.6c1.8-4.4,4.3-8.3,7.7-11.7,3.4-3.4,7.4-6.1,12.1-8.1,4.7-2,9.9-2.9,15.5-2.9s6.5.3,10,.9,6.5,1.3,8.8,2.2v13.6c-2.9-2.4-6.3-4.3-10.1-5.7-3.8-1.4-7.6-2.1-11.3-2.1s-6.4.7-9.2,2c-2.8,1.3-5.1,3.2-7,5.5-1.9,2.4-3.4,5.2-4.4,8.4-1,3.2-1.5,6.7-1.5,10.4s.5,6,1.4,9c.9,3.1,2.3,5.9,4.2,8.5,1.9,2.6,4.2,4.7,6.9,6.3,2.8,1.6,5.9,2.4,9.4,2.4,7.8,0,15-2.8,21.7-8.4v13.5c-3.3,1.4-6.6,2.3-9.9,2.7Z"/>
      <path d="M382.5,934.3c2-5,3-10.9,3-17.7v-32.7c0-6.8-1-12.7-3-17.7h18.9c-2,5-3,11-3,17.7v32.7c0,6.8,1,12.7,3,17.7h-18.9Z"/>
      <path d="M462.6,879c-1.4-1.3-3.2-2.2-5.1-3-2-.7-4.6-1.1-7.7-1.1h-5.4v41.7c0,6.8,1,12.7,3,17.7h-18.9c2-5,3-10.9,3-17.7v-41.7h-6c-3.4,0-6.4.5-8.9,1.5-2.5,1-4.7,2.2-6.5,3.6l4-13.9h52.9l-4.2,12.8Z"/>
      <path d="M510.4,916.6c0,3.4.2,6.6.7,9.5.5,2.9,1.2,5.6,2.2,8.3h-18.7c1-2.6,1.8-5.4,2.2-8.3.4-2.9.7-6,.7-9.5v-15.3l-15.6-24.4c-3.1-4.9-5.7-8.4-7.8-10.7h18.2c0,1,.3,2.3.9,3.9.6,1.6,1.2,2.8,1.7,3.7l10.7,17.1,10.7-17.1c.5-.9,1.1-2.1,1.7-3.7.6-1.6.9-2.9.9-3.9h14.9c-2.1,2.3-4.7,5.9-7.8,10.7l-15.6,24.4v15.3Z"/>
      <path d="M589,915.2c0,3.3-.6,6.1-1.8,8.4-1.2,2.4-3,4.6-5.2,6.6-1.8,1.6-3.8,2.7-6.2,3.5-2.4.8-5,1.1-7.7,1.1-5.7,0-10.4-2-14.2-5.9-1.8-1.8-3.2-3.9-4.2-6.1-1-2.2-1.5-4.8-1.5-7.7,0-4.7,1.5-8.7,4.5-12.2,2-2.4,4.4-4.1,7.2-5.2,2.7-1.1,5.6-1.7,8.7-1.7s5.4.5,7.9,1.5c2.5,1,4.7,2.3,6.4,4,2,1.9,3.5,4,4.6,6.2,1.1,2.3,1.6,4.8,1.6,7.5ZM569.4,929.2c1.8,0,3.4-.3,4.9-.9,1.5-.6,2.8-1.4,3.9-2.5,1.1-1.1,2-2.5,2.6-4.1.6-1.6.9-3.4.9-5.3s-.4-4.1-1.3-6.2c-.9-2.1-2-3.8-3.5-5.2-1.2-1.2-2.6-2.1-4.2-2.7-1.6-.6-3.2-.9-4.8-.9s-3.4.3-5,.9c-1.6.6-2.9,1.4-4.1,2.6-1.2,1.1-2.1,2.5-2.7,4.1-.7,1.6-1,3.4-1,5.4s.4,4,1.1,5.8,1.7,3.4,3,4.7c1.3,1.4,2.8,2.4,4.6,3.1s3.6,1.1,5.5,1.1Z"/>
      <path d="M596.9,924.5v-18.1c0-3.8-.6-7-1.7-9.9h23.2l-3.2,6.6c-.7-.5-1.8-1-3.1-1.3-1.3-.3-2.8-.5-4.3-.5h-3.8v11.5h12.1l-2.9,6.1c-.7-.4-1.5-.8-2.4-1-.9-.2-2-.3-3.4-.3h-3.4v6.8c0,3.8.6,7.1,1.7,9.9h-10.5c1.1-2.8,1.7-6.1,1.7-9.9Z"/>
      <path d="M686.7,934.3h-42.5c2-5,3-10.9,3-17.7v-32.7c0-6.8-1-12.7-3-17.7h18.9c-2,5-3,11-3,17.7v41.7h9.5c3.9,0,7.2-.3,10-1,2.8-.7,6.3-1.9,10.6-3.6l-3.6,13.3Z"/>
      <path d="M767.6,899.8c0,5.9-1.1,11-3.3,15.2-2.2,4.3-5.3,8.2-9.4,11.9-3.2,2.8-6.9,4.9-11.2,6.3-4.3,1.3-9,2-14,2-10.2,0-18.7-3.5-25.6-10.5-3.2-3.3-5.7-7-7.5-11-1.8-4-2.7-8.7-2.7-13.8,0-8.4,2.7-15.7,8.1-22,3.7-4.3,8-7.4,12.9-9.5,4.9-2,10.1-3.1,15.7-3.1s9.7.9,14.3,2.7c4.5,1.8,8.4,4.2,11.6,7.2,3.5,3.4,6.3,7.2,8.2,11.2,2,4.1,2.9,8.6,2.9,13.4ZM732.3,925.1c3.2,0,6.1-.5,8.8-1.6,2.7-1,5.1-2.6,7.1-4.6,2-2,3.6-4.5,4.7-7.3,1.1-2.9,1.7-6.1,1.7-9.5s-.8-7.3-2.3-11.1c-1.6-3.8-3.7-6.9-6.3-9.4-2.2-2.1-4.8-3.7-7.6-4.8-2.8-1.1-5.7-1.7-8.6-1.7s-6.2.5-9,1.6c-2.8,1-5.2,2.6-7.4,4.6-2.1,2-3.8,4.5-5,7.4-1.2,2.9-1.8,6.2-1.8,9.8s.6,7.1,1.9,10.4c1.3,3.2,3.1,6.1,5.5,8.5s5.1,4.3,8.2,5.7c3.1,1.4,6.5,2,10,2Z"/>
      <path d="M792.5,926c.4,2.9,1.2,5.6,2.2,8.3h-15.7c2-5,3-10.9,3-17.7v-36.4c0-1.5-.3-3-.8-4.4-.5-1.4-1.2-2.5-1.9-3.4l-5.4-6.2h17.4l35.4,46.8v-29.1c0-3.4-.2-6.6-.7-9.4-.5-2.9-1.2-5.6-2.2-8.3h15.7c-1,2.6-1.8,5.4-2.2,8.3-.5,2.9-.7,6-.7,9.4v33.5c0,7.1.5,12.8,1.5,16.9h-12.7c0-.3-.3-.9-.8-1.7-.5-.8-1.1-1.8-1.8-2.9-.7-1.1-1.4-2.2-2.2-3.3-.7-1.1-1.4-2.1-2-2.8l-26.7-34.7v27.8c0,3.4.2,6.6.7,9.5Z"/>
      <path d="M854.5,916.6v-32.7c0-6.8-1-12.7-3-17.7h15.7c5,0,9.3.2,12.9.7,3.6.5,6.9,1.5,9.9,3,2.8,1.4,5.4,3.1,7.9,5.3,2.5,2.1,4.8,4.5,6.7,7.2s3.5,5.6,4.6,8.7c1.1,3.1,1.7,6.3,1.7,9.6s-.5,6.2-1.4,9.1c-.9,2.9-2.2,5.6-3.7,8-1.6,2.4-3.3,4.6-5.3,6.5-2,1.9-4,3.5-6.2,4.9-2.3,1.5-5.1,2.7-8.4,3.7-3.3,1-6.6,1.4-10,1.4h-24.4c2-5.1,3-11,3-17.8ZM897.7,901.6c0-3.7-1-7.4-3-11.2-2-3.8-4.9-7.1-8.8-9.9-2.5-1.9-5.3-3.3-8.2-4.2-2.9-.9-6.4-1.5-10.3-1.6v51.4c2.3,0,4.6-.3,6.9-.6,2.3-.3,4.4-.8,6.3-1.5,2-.7,4-1.7,6-3,2-1.3,3.8-2.9,5.5-4.8,1.7-1.9,3-4.1,4-6.6,1-2.5,1.5-5.2,1.5-8.1Z"/>
      <path d="M995.4,899.8c0,5.9-1.1,11-3.3,15.2-2.2,4.3-5.3,8.2-9.4,11.9-3.2,2.8-6.9,4.9-11.2,6.3s-9,2-14,2c-10.2,0-18.7-3.5-25.6-10.5-3.2-3.3-5.7-7-7.5-11-1.8-4-2.7-8.7-2.7-13.8,0-8.4,2.7-15.7,8.1-22,3.7-4.3,8-7.4,12.9-9.5,4.9-2,10.1-3.1,15.7-3.1s9.7.9,14.3,2.7c4.5,1.8,8.4,4.2,11.6,7.2,3.5,3.4,6.3,7.2,8.2,11.2,2,4.1,2.9,8.6,2.9,13.4ZM960.1,925.1c3.2,0,6.1-.5,8.8-1.6,2.7-1,5.1-2.6,7.1-4.6,2-2,3.6-4.5,4.7-7.3s1.7-6.1,1.7-9.5-.8-7.3-2.3-11.1c-1.6-3.8-3.7-6.9-6.3-9.4-2.2-2.1-4.8-3.7-7.6-4.8-2.8-1.1-5.7-1.7-8.6-1.7s-6.2.5-9,1.6c-2.8,1-5.2,2.6-7.4,4.6-2.1,2-3.8,4.5-5,7.4-1.2,2.9-1.8,6.2-1.8,9.8s.6,7.1,1.9,10.4c1.3,3.2,3.1,6.1,5.5,8.5,2.4,2.4,5.1,4.3,8.2,5.7,3.1,1.4,6.5,2,10,2Z"/>
      <path d="M1020.3,926c.4,2.9,1.2,5.6,2.2,8.3h-15.7c2-5,3-10.9,3-17.7v-36.4c0-1.5-.3-3-.8-4.4-.5-1.4-1.2-2.5-1.9-3.4l-5.4-6.2h17.4l35.4,46.8v-29.1c0-3.4-.2-6.6-.7-9.4-.5-2.9-1.2-5.6-2.2-8.3h15.7c-1,2.6-1.8,5.4-2.2,8.3-.5,2.9-.7,6-.7,9.4v33.5c0,7.1.5,12.8,1.5,16.9h-12.7c0-.3-.3-.9-.8-1.7-.5-.8-1.1-1.8-1.8-2.9-.7-1.1-1.4-2.2-2.2-3.3-.7-1.1-1.4-2.1-2-2.8l-26.7-34.7v27.8c0,3.4.2,6.6.7,9.5Z"/>
      <path d="M245.9,1012.3c-5.4-2.6-9.4-5.4-11.9-8.4-2.5-3-3.8-6.4-3.8-10.4,0-5.8,2.1-10.6,6.2-14.3,4.1-3.7,9.7-5.5,16.7-5.5s4.9.3,8.1.8c3.2.5,6.2,1.2,9,1.9v12.4c-.9-.7-2-1.5-3.4-2.3-1.3-.8-2.8-1.5-4.4-2.2-1.6-.7-3.2-1.2-4.8-1.6-1.6-.4-3.1-.6-4.5-.6-3.5,0-6.1.8-8,2.3-1.8,1.6-2.7,3.5-2.7,5.8s.8,4.8,2.5,6.2c1.7,1.4,4.6,3.1,8.6,5,1.3.6,2.4,1.1,3.2,1.5,2.5,1.2,4.7,2.4,6.5,3.5,1.8,1.1,3.5,2.4,5,3.9,1.5,1.5,2.6,3.2,3.5,5.2.9,2,1.3,4.3,1.3,6.8,0,6.1-2.2,11-6.6,14.8-4.4,3.8-10.2,5.7-17.4,5.7s-6.3-.2-9.7-.7c-3.4-.5-6.3-1.2-8.6-2.4v-12c1.1.7,2.5,1.5,4,2.2s3.2,1.5,4.9,2.1,3.5,1.2,5.4,1.6c1.8.4,3.6.6,5.2.6,3.3,0,5.8-.9,7.6-2.7,1.7-1.8,2.6-3.9,2.6-6.3s-.9-4.9-2.7-6.4-4.8-3.3-9.2-5.4c-.9-.4-1.7-.8-2.4-1.2Z"/>
      <path d="M329.2,1042.5c-3.3.4-7.2.7-11.8.7s-9.6-1-14-2.9c-4.3-1.9-8.1-4.5-11.2-7.8-3.2-3.3-5.6-6.9-7.3-10.9-1.7-4-2.6-8-2.6-12.1s.9-9.2,2.7-13.6c1.8-4.4,4.3-8.3,7.7-11.7,3.4-3.4,7.4-6.1,12.1-8.1,4.7-2,9.9-2.9,15.5-2.9s6.5.3,10,.9,6.5,1.3,8.8,2.2v13.6c-2.9-2.4-6.3-4.3-10.1-5.7-3.8-1.4-7.6-2.1-11.3-2.1s-6.4.7-9.2,2-5.1,3.2-7,5.5c-1.9,2.4-3.4,5.2-4.4,8.4-1,3.2-1.5,6.7-1.5,10.4s.5,6,1.4,9c.9,3.1,2.3,5.9,4.2,8.5,1.9,2.6,4.2,4.7,6.9,6.3,2.8,1.6,5.9,2.4,9.4,2.4,7.8,0,15-2.8,21.7-8.4v13.5c-3.3,1.4-6.6,2.3-9.9,2.7Z"/>
      <path d="M395,1003.1v-11.2c0-6.8-1-12.7-3-17.7h18.9c-2,5-3,11-3,17.7v32.7c0,6.8,1,12.7,3,17.7h-18.9c2-5,3-10.9,3-17.7v-12.3h-26.5v12.3c0,6.8,1,12.7,3,17.7h-18.9c2-5,3-10.9,3-17.7v-32.7c0-6.8-1-12.7-3-17.7h18.9c-2,5-3,11-3,17.7v11.2h26.5Z"/>
      <path d="M496.3,1007.8c0,5.9-1.1,11-3.3,15.2-2.2,4.3-5.3,8.2-9.4,11.9-3.2,2.8-6.9,4.9-11.2,6.3-4.3,1.3-9,2-14,2-10.2,0-18.7-3.5-25.6-10.5-3.2-3.3-5.7-7-7.5-11-1.8-4-2.7-8.7-2.7-13.8,0-8.4,2.7-15.8,8.1-22,3.7-4.3,8-7.4,12.9-9.5,4.9-2,10.1-3.1,15.7-3.1s9.7.9,14.3,2.7c4.5,1.8,8.4,4.2,11.6,7.2,3.5,3.4,6.3,7.2,8.2,11.2,2,4.1,2.9,8.6,2.9,13.4ZM461,1033.1c3.2,0,6.1-.5,8.8-1.6,2.7-1,5.1-2.6,7.1-4.6s3.6-4.5,4.7-7.3c1.1-2.9,1.7-6.1,1.7-9.5s-.8-7.3-2.3-11.1c-1.6-3.8-3.7-6.9-6.3-9.4-2.2-2.1-4.8-3.7-7.6-4.8-2.8-1.1-5.7-1.7-8.6-1.7s-6.2.5-9,1.6c-2.8,1-5.2,2.6-7.4,4.6-2.1,2-3.8,4.5-5,7.4-1.2,2.9-1.8,6.2-1.8,9.8s.6,7.1,1.9,10.4c1.3,3.2,3.1,6.1,5.5,8.5s5.1,4.3,8.2,5.7c3.1,1.4,6.5,2,10,2Z"/>
      <path d="M580.7,1007.8c0,5.9-1.1,11-3.3,15.2-2.2,4.3-5.3,8.2-9.4,11.9-3.2,2.8-6.9,4.9-11.2,6.3s-9,2-14,2c-10.2,0-18.7-3.5-25.6-10.5-3.2-3.3-5.7-7-7.5-11-1.8-4-2.7-8.7-2.7-13.8,0-8.4,2.7-15.8,8.1-22,3.7-4.3,8-7.4,12.9-9.5,4.9-2,10.1-3.1,15.7-3.1s9.7.9,14.3,2.7c4.5,1.8,8.4,4.2,11.6,7.2,3.5,3.4,6.3,7.2,8.2,11.2,2,4.1,2.9,8.6,2.9,13.4ZM545.4,1033.1c3.2,0,6.1-.5,8.8-1.6,2.7-1,5.1-2.6,7.1-4.6,2-2,3.6-4.5,4.7-7.3s1.7-6.1,1.7-9.5-.8-7.3-2.3-11.1c-1.6-3.8-3.7-6.9-6.3-9.4-2.2-2.1-4.8-3.7-7.6-4.8-2.8-1.1-5.7-1.7-8.6-1.7s-6.2.5-9,1.6-5.2,2.6-7.4,4.6c-2.1,2-3.8,4.5-5,7.4-1.2,2.9-1.8,6.2-1.8,9.8s.6,7.1,1.9,10.4c1.3,3.2,3.1,6.1,5.5,8.5,2.4,2.4,5.1,4.3,8.2,5.7,3.1,1.4,6.5,2,10,2Z"/>
      <path d="M634.9,1042.3h-42.5c2-5,3-10.9,3-17.7v-32.7c0-6.8-1-12.7-3-17.7h18.9c-2,5-3,11-3,17.7v41.7h9.5c3.9,0,7.2-.3,10-1,2.8-.7,6.3-1.9,10.6-3.6l-3.6,13.3Z"/>
      <path d="M672.3,1024.6v-32.7c0-6.8-1-12.7-3-17.7h41.8l-5.7,11.9c-1.3-1-3.2-1.7-5.6-2.3-2.4-.6-5-.9-7.8-.9h-6.8v20.7h21.7l-5.2,11.1c-1.3-.8-2.7-1.4-4.3-1.8-1.6-.4-3.6-.6-6.2-.6h-6v12.2c0,6.8,1,12.7,3,17.7h-18.9c2-5,3-10.9,3-17.7Z"/>
      <path d="M791.6,1007.8c0,5.9-1.1,11-3.3,15.2-2.2,4.3-5.3,8.2-9.4,11.9-3.2,2.8-6.9,4.9-11.2,6.3-4.3,1.3-9,2-14,2-10.2,0-18.7-3.5-25.6-10.5-3.2-3.3-5.7-7-7.5-11-1.8-4-2.7-8.7-2.7-13.8,0-8.4,2.7-15.8,8.1-22,3.7-4.3,8-7.4,12.9-9.5,4.9-2,10.1-3.1,15.7-3.1s9.7.9,14.3,2.7c4.5,1.8,8.4,4.2,11.6,7.2,3.5,3.4,6.3,7.2,8.2,11.2,2,4.1,2.9,8.6,2.9,13.4ZM756.3,1033.1c3.2,0,6.1-.5,8.8-1.6,2.7-1,5.1-2.6,7.1-4.6,2-2,3.6-4.5,4.7-7.3,1.1-2.9,1.7-6.1,1.7-9.5s-.8-7.3-2.3-11.1c-1.6-3.8-3.7-6.9-6.3-9.4-2.2-2.1-4.8-3.7-7.6-4.8-2.8-1.1-5.7-1.7-8.6-1.7s-6.2.5-9,1.6c-2.8,1-5.2,2.6-7.4,4.6-2.1,2-3.8,4.5-5,7.4-1.2,2.9-1.8,6.2-1.8,9.8s.6,7.1,1.9,10.4c1.3,3.2,3.1,6.1,5.5,8.5s5.1,4.3,8.2,5.7c3.1,1.4,6.5,2,10,2Z"/>
      <path d="M818.7,1016.4v8.2c0,6.8,1,12.7,3,17.7h-18.9c2-5,3-10.9,3-17.7v-32.7c0-6.8-1-12.7-3-17.7h20.6c3.5,0,6.8.5,9.9,1.6,3.1,1.1,5.7,2.6,7.9,4.5,2.2,1.9,3.9,4.1,5.1,6.5,1.2,2.4,1.8,5,1.8,7.6,0,4.6-1.4,8.5-4.2,11.8-2.8,3.2-6.5,5.7-11,7.3,1.6,2.3,3.4,4.8,5.6,7.5,2.2,2.7,4.6,5.5,7.1,8.3,2.5,2.8,4.9,5.4,7,7.6,2.1,2.2,3.8,4.1,5.2,5.4-.3,0-1,.1-2.2.2-1.1,0-2.2.2-3.2.3-1,0-2.1.2-3.3.2-1.2,0-2.1,0-2.8,0-1.5,0-4.6-2.4-9.4-7.1-4.8-4.7-10.6-11.3-17.5-19.7h-.7ZM824.8,1006.5c2-.6,3.8-1.5,5.4-2.5,1.7-1,3-2.3,4-3.8,1-1.5,1.5-3.1,1.5-4.9s-.5-3.6-1.4-5.1-2.2-2.9-3.9-4c-1.7-1.1-3.5-2-5.5-2.6-2-.6-4.1-1-6.2-1v25.3c2-.3,4-.8,6-1.4Z"/>
      <path d="M931.4,1024.5c0-3.8-.2-7-.5-9.8-.3-2.8-1-5.4-2-7.9h17.8c-1,2.5-1.7,5.2-2,7.9-.3,2.8-.4,6-.4,9.8v9.9c0,1.7,0,2.9,0,3.4,0,.5.3,1.2.6,2.1-3.3,1.2-6.9,2.1-10.7,2.6-3.8.5-7.5.8-10.9.8-7.6,0-14.1-1-19.7-3-5.6-2-10.1-4.7-13.5-8-3.5-3.3-6-6.9-7.6-10.9-1.6-4-2.4-8-2.4-12s1-9.2,2.9-13.5c1.9-4.3,4.7-8.2,8.3-11.6,3.6-3.4,7.8-6.1,12.6-8,4.9-2,10.1-2.9,15.8-2.9s3.4,0,5.6.2c2.2.2,4.4.3,6.7.6,2.2.2,4.3.5,6.2.9,1.9.4,3.4.8,4.5,1.2v15.2c-1.5-1.2-3.2-2.3-5.2-3.4-2-1.1-4.1-2-6.4-2.9-2.3-.8-4.6-1.5-6.9-2-2.3-.5-4.6-.7-6.7-.7-7.4,0-13.3,2.3-17.6,6.9-4.3,4.6-6.4,10.7-6.4,18.3s.7,6.3,2,9.5c1.3,3.2,3.2,6,5.8,8.6,2.5,2.6,5.6,4.6,9.1,6.1,3.6,1.5,7.5,2.2,11.8,2.2s4.3-.1,5.7-.4c1.3-.2,2.5-.6,3.6-1.1v-8.1Z"/>
      <path d="M959.4,1042.3c2-5,3-10.9,3-17.7v-32.7c0-6.8-1-12.7-3-17.7h18.9c-2,5-3,11-3,17.7v32.7c0,6.8,1,12.7,3,17.7h-18.9Z"/>
      <path d="M1007.7,1016.4v8.2c0,6.8,1,12.7,3,17.7h-18.9c2-5,3-10.9,3-17.7v-32.7c0-6.8-1-12.7-3-17.7h20.6c3.5,0,6.8.5,9.9,1.6,3.1,1.1,5.7,2.6,7.9,4.5,2.2,1.9,3.9,4.1,5.1,6.5,1.2,2.4,1.8,5,1.8,7.6,0,4.6-1.4,8.5-4.2,11.8-2.8,3.2-6.5,5.7-11,7.3,1.6,2.3,3.4,4.8,5.6,7.5,2.2,2.7,4.6,5.5,7.1,8.3,2.5,2.8,4.9,5.4,7,7.6s3.8,4.1,5.2,5.4c-.3,0-1,.1-2.2.2-1.1,0-2.2.2-3.2.3-1,0-2.1.2-3.3.2-1.2,0-2.1,0-2.8,0-1.5,0-4.6-2.4-9.4-7.1-4.8-4.7-10.6-11.3-17.5-19.7h-.7ZM1013.8,1006.5c2-.6,3.8-1.5,5.4-2.5,1.7-1,3-2.3,4-3.8,1-1.5,1.5-3.1,1.5-4.9s-.5-3.6-1.4-5.1-2.2-2.9-3.9-4c-1.7-1.1-3.5-2-5.5-2.6-2-.6-4.1-1-6.2-1v25.3c2-.3,4-.8,6-1.4Z"/>
      <path d="M1096.6,1042.3h-42.5c2-5,3-10.9,3-17.7v-32.7c0-6.8-1-12.7-3-17.7h18.9c-2,5-3,11-3,17.7v41.7h9.5c3.9,0,7.2-.3,10-1,2.8-.7,6.3-1.9,10.6-3.6l-3.6,13.3Z"/>
      <path d="M1124.5,1012.3c-5.4-2.6-9.4-5.4-11.9-8.4-2.5-3-3.8-6.4-3.8-10.4,0-5.8,2.1-10.6,6.2-14.3,4.1-3.7,9.7-5.5,16.7-5.5s4.9.3,8.1.8c3.2.5,6.2,1.2,9,1.9v12.4c-.9-.7-2-1.5-3.4-2.3-1.3-.8-2.8-1.5-4.4-2.2-1.6-.7-3.2-1.2-4.8-1.6-1.6-.4-3.1-.6-4.5-.6-3.5,0-6.1.8-8,2.3-1.8,1.6-2.7,3.5-2.7,5.8s.8,4.8,2.5,6.2c1.7,1.4,4.6,3.1,8.6,5,1.3.6,2.4,1.1,3.2,1.5,2.5,1.2,4.7,2.4,6.5,3.5,1.8,1.1,3.5,2.4,5,3.9,1.5,1.5,2.6,3.2,3.5,5.2.9,2,1.3,4.3,1.3,6.8,0,6.1-2.2,11-6.6,14.8-4.4,3.8-10.2,5.7-17.4,5.7s-6.3-.2-9.7-.7c-3.4-.5-6.3-1.2-8.6-2.4v-12c1.1.7,2.5,1.5,4,2.2,1.5.8,3.2,1.5,4.9,2.1,1.7.7,3.5,1.2,5.4,1.6,1.8.4,3.6.6,5.2.6,3.3,0,5.8-.9,7.6-2.7,1.7-1.8,2.6-3.9,2.6-6.3s-.9-4.9-2.7-6.4c-1.8-1.5-4.8-3.3-9.2-5.4-.9-.4-1.7-.8-2.4-1.2Z"/>
    </g>
  </g>
  <g id="Banner">
    <g>
      <g>
        <path class="st1" d="M609.6,790v-15.5c0-3.2-.5-6-1.4-8.4h7.4c2.4,0,4.4.1,6.1.3,1.7.2,3.3.7,4.7,1.4,1.3.7,2.6,1.5,3.8,2.5,1.2,1,2.3,2.2,3.2,3.4.9,1.3,1.7,2.7,2.2,4.1.5,1.5.8,3,.8,4.6s-.2,3-.7,4.3c-.4,1.4-1,2.6-1.8,3.8-.7,1.2-1.6,2.2-2.5,3.1-.9.9-1.9,1.7-2.9,2.3-1.1.7-2.4,1.3-4,1.8-1.5.5-3.1.7-4.8.7h-11.6c.9-2.4,1.4-5.2,1.4-8.5ZM630.1,782.9c0-1.7-.5-3.5-1.4-5.3-1-1.8-2.3-3.4-4.2-4.7-1.2-.9-2.5-1.5-3.9-2-1.4-.4-3-.7-4.9-.7v24.4c1.1,0,2.2-.1,3.3-.3,1.1-.2,2.1-.4,3-.7,1-.3,1.9-.8,2.9-1.4.9-.6,1.8-1.4,2.6-2.3.8-.9,1.4-1.9,1.9-3.1.5-1.2.7-2.5.7-3.8Z"/>
        <path class="st1" d="M644.9,798.5c.9-2.4,1.4-5.2,1.4-8.4v-15.5c0-3.2-.5-6-1.4-8.4h9c-.9,2.4-1.4,5.2-1.4,8.4v15.5c0,3.2.5,6,1.4,8.4h-9Z"/>
        <path class="st1" d="M670.8,786.2v3.9c0,3.2.5,6,1.4,8.4h-9c.9-2.4,1.4-5.2,1.4-8.4v-15.5c0-3.2-.5-6-1.4-8.4h9.8c1.7,0,3.2.3,4.7.8,1.5.5,2.7,1.2,3.8,2.1,1.1.9,1.9,1.9,2.4,3.1.6,1.2.9,2.4.9,3.6,0,2.2-.7,4.1-2,5.6-1.3,1.5-3.1,2.7-5.2,3.5.7,1.1,1.6,2.3,2.7,3.5,1,1.3,2.2,2.6,3.4,4,1.2,1.4,2.3,2.6,3.3,3.6,1,1.1,1.8,1.9,2.5,2.6-.1,0-.5,0-1,.1-.5,0-1.1,0-1.5.1-.5,0-1,0-1.6.1-.6,0-1,0-1.3,0-.7,0-2.2-1.1-4.5-3.4-2.3-2.2-5-5.3-8.3-9.3h-.3ZM673.7,781.5c.9-.3,1.8-.7,2.6-1.2.8-.5,1.4-1.1,1.9-1.8.5-.7.7-1.5.7-2.3s-.2-1.7-.7-2.4c-.4-.7-1.1-1.4-1.8-1.9-.8-.5-1.7-.9-2.6-1.2-1-.3-1.9-.5-2.9-.5v12c1-.1,1.9-.4,2.9-.7Z"/>
        <path class="st1" d="M695.8,798.5c.9-2.4,1.4-5.2,1.4-8.4v-15.5c0-3.2-.5-6-1.4-8.4h9c-.9,2.4-1.4,5.2-1.4,8.4v15.5c0,3.2.5,6,1.4,8.4h-9Z"/>
        <path class="st1" d="M737.6,790c0-1.8,0-3.3-.2-4.7-.1-1.3-.5-2.6-.9-3.8h8.5c-.5,1.2-.8,2.4-.9,3.8-.1,1.3-.2,2.9-.2,4.7v4.7c0,.8,0,1.4,0,1.6,0,.3.1.6.3,1-1.6.6-3.3,1-5.1,1.2-1.8.2-3.5.4-5.2.4-3.6,0-6.7-.5-9.4-1.4-2.6-1-4.8-2.2-6.4-3.8-1.6-1.6-2.8-3.3-3.6-5.2-.8-1.9-1.2-3.8-1.2-5.7s.5-4.4,1.4-6.4c.9-2.1,2.2-3.9,3.9-5.5,1.7-1.6,3.7-2.9,6-3.8,2.3-.9,4.8-1.4,7.5-1.4s1.6,0,2.6.1c1.1,0,2.1.2,3.2.3,1.1.1,2,.3,2.9.4.9.2,1.6.4,2.1.6v7.2c-.7-.6-1.5-1.1-2.5-1.6-.9-.5-2-1-3-1.4-1.1-.4-2.2-.7-3.3-.9-1.1-.2-2.2-.3-3.2-.3-3.5,0-6.3,1.1-8.3,3.3-2,2.2-3.1,5.1-3.1,8.7s.3,3,.9,4.5c.6,1.5,1.5,2.9,2.7,4.1,1.2,1.2,2.6,2.2,4.3,2.9,1.7.7,3.6,1.1,5.6,1.1s2.1,0,2.7-.2c.6-.1,1.2-.3,1.7-.5v-3.8Z"/>
        <path class="st1" d="M774.1,798.5h-20.2c.9-2.4,1.4-5.2,1.4-8.4v-15.5c0-3.2-.5-6-1.4-8.4h20.8l-2.7,5.6c-.6-.5-1.5-.8-2.7-1.1-1.2-.3-2.4-.4-3.7-.4h-4.2v9.8h11.1l-2.5,5.3c-.5-.3-1.3-.6-2.2-.8-.9-.2-1.8-.3-2.8-.3h-3.7v10.1h4.5c1.9,0,3.4-.2,4.8-.5,1.3-.3,3-.9,5-1.7l-1.7,6.3Z"/>
      </g>
      <path d="M963.6,779.6c-20.1,12.2-63.1-8.6-91-25.1-36.1-19.7-65.2-30.3-83.7-30.3,4.6,3.7,7.8,9.9,5.5,17.1-2.6,7.6-10.5,11.6-17.8,12.5-6-10.5-19.5-15.1-28-22.8,0,0-11.6-9.8,28.4-13.5,45.1-4.2,102.5,38.8,140,53.4,6.4,2.5,51.2,23.8,57-17,.2-1.4.7-.7.6-.3-1,15.2-4.9,22.4-10.9,26.1Z"/>
      <path d="M414.4,779.6c20.1,12.2,63.1-8.6,91-25.1,36.1-19.7,65.2-30.3,83.7-30.3-4.6,3.7-7.8,9.9-5.5,17.1,2.6,7.6,10.5,11.6,17.8,12.5,6-10.5,19.5-15.1,28-22.8,0,0,11.6-9.8-28.4-13.5-45.1-4.2-102.5,38.8-140,53.4-6.4,2.5-51.2,23.8-57-17-.2-1.4-.7-.7-.6-.3,1,15.2,5,22.4,10.9,26.1Z"/>
      <path d="M606.6,806.3c-12.6-3.5-18.3-10.9-20.8-17.3-.2-.4-.6-.3-.4.1,3,10.2,9.9,24.6,28.8,24.6h152.3c18.9,0,25.9-14.4,28.8-24.6.1-.4-.2-.5-.4-.1-2.6,6.4-8.3,13.8-20.9,17.3-6.4,1.6-29.8,1.2-36.5,1.2h-94.3c-6.6,0-30.1.4-36.5-1.2Z"/>
      <path class="st1" d="M424,762.7l-2.4-14.4c-.5-3-1.4-5.5-2.6-7.6l6.9-1.1c2.2-.4,4.1-.6,5.7-.6,1.6,0,3.1.1,4.6.6,1.3.4,2.6,1,3.9,1.7,1.3.8,2.4,1.7,3.5,2.7,1.1,1,2,2.2,2.7,3.5.7,1.3,1.2,2.7,1.4,4.1.2,1.4.2,2.8,0,4.1-.2,1.3-.5,2.6-1.1,3.8-.5,1.2-1.1,2.3-1.8,3.3-.7,1-1.5,1.9-2.4,2.6-.9.8-2.1,1.6-3.4,2.2-1.4.7-2.8,1.1-4.3,1.4l-10.8,1.7c.5-2.4.5-5.1,0-8ZM442,752.9c-.3-1.6-1-3.2-2.2-4.7-1.2-1.5-2.7-2.8-4.6-3.7-1.2-.6-2.6-1-3.9-1.2-1.4-.2-2.9-.2-4.6,0l3.8,22.7c1-.2,2-.4,3-.8,1-.3,1.9-.7,2.7-1.1.8-.5,1.7-1.1,2.4-1.8.8-.7,1.5-1.6,2.1-2.5.6-1,1-2,1.3-3.2.3-1.2.3-2.4,0-3.7Z"/>
      <path class="st1" d="M482.9,738c.7,2.5.9,4.8.5,6.9-.4,2.1-1.3,4.2-2.6,6.3-1,1.6-2.4,3-4.1,4.1-1.7,1.1-3.6,2-5.7,2.6-4.4,1.3-8.5.8-12.3-1.4-1.8-1-3.3-2.3-4.6-3.8-1.3-1.5-2.2-3.4-2.9-5.6-1-3.6-.8-7.1.8-10.5,1-2.3,2.5-4.2,4.4-5.7,1.9-1.5,4-2.6,6.4-3.3,2.1-.6,4.3-.8,6.5-.6,2.2.2,4.1.8,5.9,1.7,1.9,1,3.6,2.3,4.9,3.8,1.3,1.5,2.3,3.3,2.9,5.4ZM470.8,753.3c1.4-.4,2.6-1,3.6-1.8,1-.8,1.9-1.7,2.5-2.9.6-1.1,1-2.4,1.1-3.7.1-1.4,0-2.8-.5-4.3-.4-1.6-1.2-3-2.4-4.5-1.1-1.4-2.4-2.5-3.9-3.2-1.2-.6-2.5-1-3.9-1.1-1.4-.1-2.7,0-3.9.3-1.4.4-2.6,1-3.7,1.8-1.1.8-1.9,1.8-2.6,2.9-.7,1.1-1.1,2.4-1.2,3.8-.1,1.4,0,2.9.5,4.4.5,1.6,1.2,3,2.1,4.2,1,1.2,2.1,2.2,3.4,3,1.3.8,2.7,1.2,4.2,1.4,1.5.2,3,0,4.5-.4Z"/>
      <path class="st1" d="M507.8,739.4l-17.7-12.2,4.5,9.8c0,.1.2.4.3.7.1.3.2.5.3.7,1.1,2.2,2.4,4,3.8,5.3l-6.3,3.2c-.2-2.6-.9-5.2-2.1-7.8l-6.7-14.7c-.7-1.4-1.4-2.4-2.2-3.1-.7-.7-1.6-1.2-2.6-1.7l5.7-2.9,18.6,12.9.5-22.7,4.8-2.5c0,.8.3,1.7.7,2.9.4,1.1.9,2.3,1.5,3.4,0,.1.2.3.3.6,0,.2.2.4.3.6l7.2,12.7c1.5,2.6,3.2,4.7,5.1,6.3l-7.5,3.9c-.3-2-1-4.1-2.1-6.3-.1-.2-.2-.4-.3-.6-.1-.3-.2-.5-.3-.6l-5.4-9.7-.5,21.9Z"/>
      <path class="st1" d="M530.3,727.5c-.2-2.4-.9-5-2.2-7.7l-6.3-13.2c-1.3-2.7-2.8-4.9-4.6-6.6l7.6-3.6c.2,2.4.9,5,2.2,7.7l6.3,13.2c1.3,2.7,2.8,4.9,4.6,6.6l-7.6,3.6Z"/>
      <path class="st1" d="M549.3,714.8c.6,1.2,1.3,2.2,2.1,3.2l-6.7,2.3c.1-2.4-.3-5.1-1.3-7.9l-5.3-15.4c-.2-.6-.5-1.2-1-1.7-.4-.5-.9-.9-1.3-1.1l-3.2-1.8,7.3-2.5,21.8,14.7-4.2-12.3c-.5-1.5-1.1-2.7-1.7-3.9-.6-1.2-1.3-2.2-2.1-3.2l6.6-2.3c0,1.3,0,2.5.3,3.8.2,1.3.6,2.6,1.1,4.1l4.9,14.2c1,3,2.1,5.3,3.1,6.9l-5.4,1.8c0-.1-.3-.3-.6-.6-.3-.3-.7-.6-1.2-1-.5-.4-.9-.7-1.4-1.1-.5-.4-.9-.7-1.3-.9l-16.4-10.8,4,11.8c.5,1.4,1.1,2.7,1.7,3.9Z"/>
      <path class="st1" d="M593.3,708.1l-18.8,2.6c.6-2.4.6-5,.2-8l-2-14.5c-.4-3-1.2-5.6-2.4-7.7l19.4-2.7-1.8,5.6c-.6-.3-1.5-.6-2.6-.7-1.1-.1-2.3,0-3.5,0l-3.9.5,1.3,9.2,10.4-1.4-1.6,5.2c-.5-.2-1.3-.4-2.1-.5-.9,0-1.8,0-2.7,0l-3.5.5,1.3,9.4,4.2-.6c1.7-.2,3.2-.6,4.4-1.1,1.2-.5,2.7-1.2,4.5-2.2l-.8,6.1Z"/>
      <path class="st1" d="M820.4,712.2c-.3,1.3-.4,2.5-.4,3.8l-6.6-2.5c1.6-1.8,3-4.1,4.1-6.9l5.9-15.2c.2-.6.4-1.3.4-1.9,0-.7,0-1.2-.3-1.7l-1.3-3.5,7.3,2.8,7.2,25.2,4.7-12.1c.5-1.4,1-2.8,1.2-4.1.3-1.3.4-2.5.4-3.8l6.5,2.5c-.9.9-1.6,2-2.2,3.1-.7,1.1-1.3,2.4-1.8,3.8l-5.4,14c-1.1,3-1.8,5.4-2.1,7.3l-5.3-2c0-.1,0-.4,0-.8,0-.4-.2-.9-.3-1.5-.1-.6-.2-1.2-.4-1.7-.1-.6-.3-1.1-.4-1.5l-5.6-18.8-4.5,11.6c-.6,1.4-1,2.8-1.2,4.1Z"/>
      <path class="st1" d="M881.2,725.1c-.9,2.5-2.2,4.4-3.8,5.9-1.6,1.4-3.5,2.6-5.8,3.5-1.8.7-3.7,1-5.7.9-2-.1-4.1-.6-6.2-1.3-4.3-1.6-7.3-4.4-9.1-8.4-.8-1.9-1.3-3.8-1.4-5.8-.1-2,.2-4,1-6.2,1.3-3.5,3.6-6.2,6.9-8,2.2-1.2,4.5-1.9,6.9-1.9,2.4,0,4.7.3,7,1.2,2.1.8,3.9,1.9,5.6,3.4,1.6,1.5,2.9,3.1,3.7,4.8,1,2,1.5,4,1.7,6,.2,2-.1,4-.9,6.1ZM862.5,730.2c1.3.5,2.6.7,3.9.7,1.3,0,2.5-.3,3.7-.8,1.2-.5,2.2-1.3,3.1-2.3.9-1,1.6-2.3,2.2-3.7.6-1.5.8-3.2.7-5,0-1.8-.5-3.5-1.2-4.9-.6-1.2-1.4-2.3-2.4-3.2-1-.9-2.1-1.6-3.3-2-1.3-.5-2.7-.7-4-.7-1.3,0-2.6.3-3.8.8-1.2.5-2.3,1.3-3.2,2.3-.9,1-1.7,2.3-2.3,3.8-.6,1.5-.8,3.1-.8,4.6,0,1.6.4,3,1,4.4.6,1.4,1.5,2.6,2.6,3.7,1.1,1.1,2.4,1.9,3.9,2.4Z"/>
      <path class="st1" d="M890.3,734.8c-1.6-2.2-2.6-4.1-3-5.8-.4-1.7-.2-3.3.6-4.9,1.2-2.3,3-3.8,5.4-4.4,2.4-.6,5-.2,7.8,1.2.9.4,1.9,1.1,3.1,2,1.2.9,2.2,1.7,3.2,2.6l-2.5,4.9c-.2-.5-.5-1-.9-1.6-.4-.6-.8-1.2-1.3-1.8-.5-.6-1-1.1-1.6-1.6-.6-.5-1.1-.9-1.7-1.2-1.4-.7-2.6-.9-3.7-.7-1,.2-1.8.8-2.3,1.7-.6,1.1-.6,2.1-.3,3,.4.9,1.2,2.2,2.4,3.8.4.5.7.9.9,1.3.8,1,1.4,1.9,1.9,2.7.5.8.9,1.7,1.2,2.6.3.9.4,1.8.3,2.8,0,1-.4,2-.9,3-1.2,2.4-3.1,3.9-5.6,4.5-2.5.6-5.2.2-8.1-1.3-1.2-.6-2.5-1.4-3.7-2.3-1.3-.9-2.3-1.8-2.9-2.7l2.5-4.8c.3.5.7,1.1,1.1,1.7.5.6,1,1.2,1.5,1.8.6.6,1.2,1.2,1.8,1.7.7.5,1.3,1,1.9,1.3,1.3.7,2.5.8,3.6.5,1.1-.4,1.8-1,2.3-2,.6-1.1.7-2.1.3-3.1-.4-1-1.3-2.3-2.6-4-.3-.3-.5-.7-.7-1Z"/>
    </g>
  </g>
  <g id="Shield">
    <path class="st0" d="M580.3,473.4v104h0c0,4.5-.2,26.1,1,35.1,12.9,96.1,107.1,130.3,107.1,130.3,0,0,94.2-34.3,107.1-130.3,1.2-9,1.1-30.6,1-35.1h0s0-104,0-104h-216.2Z"/>
    <path d="M797.1,548.2c-.3,1.8-.6,2-.6,0v-52.5c1.2,0,2.7-.6,4.3-1.7l-3.7,54.3Z"/>
    <path d="M579.6,548.2c.3,1.8.6,2,.6,0v-52.5c-1.2,0-2.7-.6-4.3-1.7l3.7,54.3Z"/>
    <path class="st2" d="M795.7,610.7c1-9.8.8-28.8.8-33.2h-90.8v-95.7c-5.5,1.1-8.7-1.1-10.8-3-.5,1.6-3.9,4.6-8.2,6.7-3.2,2.4-7.4,3.8-12.7,2.5-1.3-.3-2.5-.7-3.5-1.2v90.6h-90.2c0,4.6-.2,26.1,1,35.1,0,0,0,0,0,0h89.2v113.5c5.7,3,11.6,5.8,18,8.5,6.1-2.5,11.8-5.2,17.2-8.1v-113.9h88.5s1.3,0,1.3,0c0-.6.1-1.2.2-1.8Z"/>
    <polygon points="799.7 471.6 577.2 471.6 577 473.4 576.7 475.1 800.2 475.1 799.7 471.6"/>
    <path class="st2" d="M629.8,549.5l-.9-51.2v-3.1s-2.4-4.3-2.4-4.3l-2.4,4.3v3.1s-.9,51.2-.9,51.2c-2.1-.2-3.9-.7-5.4-2.3-.8-.9-2.2-.9-3.1,0-.9.8-.9,2.3,0,3.1,2.6,2.8,5.6,3.6,8.6,3.7-.2.5-.4,1.1-.4,1.7,0,1,.4,1.8.9,2.5-.3.5-.6,1.2-.6,1.9s.4,1.6.8,2.3c-.3.5-.5,1.1-.5,1.7s.3,1.6.8,2.1c-.3.4-.5,1-.5,1.6,0,1.5,1.2,2.8,2.7,2.8s2.7-1.2,2.7-2.8-.2-1.2-.5-1.6c.5-.5.8-1.3.8-2.1s-.2-1.2-.5-1.7c.5-.6.8-1.4.8-2.3s-.2-1.4-.5-1.9c.5-.7.9-1.5.9-2.5s-.1-1.1-.3-1.6c2,.2,3.8.7,5.2,2.3.8.9,2.2.9,3.1,0,.9-.8.9-2.3.2-3.2-2.6-2.8-5.6-3.5-8.6-3.7Z"/>
    <path d="M581.4,615s0,0,0,0c0,0,0,.2,0,0ZM795.5,614.9s0,0,0,0c0,.1,0,0,0,0ZM795.2,614c-.4-.1-.5.9-.5.9-14.1,93.2-106.2,126.2-106.2,126.2,0,0-92.2-33-106.2-126.2,0,0-.1-1-.5-.9-.4.1-.3.8-.3.9,0,0,0,0,0,0,0,.5.1.9.2,1.5,12.9,99.2,106.8,137.6,106.8,137.6,0,0,94-38.4,106.8-137.6,0-.5.1-.9.2-1.5,0,0,0,0,0,0,0-.1,0-.8-.3-.9Z"/>
  </g>
  <g id="Dragons">
    <g>
      <g>
        <g>
          <g>
            <path d="M373.6,384.2c8.5,15.5,6.2,36.1-1.6,49.8-1.3,2.1-3.5,1.4-2.6-.9,6.1-24,3.4-42.2,1.9-49.2-.4-2,.8-2.2,2.3.4Z"/>
            <path d="M372.8,451.3c9.6,11.2,11.3,34.9,7.2,47.5-.7,2-3.4,2.1-3.1,0,1-20.7-4.5-41.5-6.9-47.1-.8-1.6,1-2.2,2.7-.4Z"/>
            <path d="M382.8,511.7c-1.4-.8-.5-2.3,1.9-1.8,13.7,3.3,29.6,23.4,33.5,35.4.6,1.9-1.1,3.6-2.4,1.7-10.8-16.5-28-32.3-33-35.3Z"/>
            <path d="M385.8,451.9c-2-1.2-5.2-5.4-30.5-10.2-1.8-.3-1.9-1.7,0-1.8,16.4-.5,26.7,3.2,33.3,8.4,2.5,1.9,2,6.5-2.8,3.6Z"/>
            <path d="M427.3,487.6c-3.1.6-9.3,1.7-12.7,2.6-7.9-18.2-15.1-34.6-18.7-69.1-.3-2.3-1.7-1.9-1.7.2,0,35.9,5.2,52.3,11.9,71.5-9.7,3.2-20.6,7.7-36,15.6-1,.5-.6,2,.8,1.6,15.5-4.8,27.5-7.6,38.1-9.7,12.5,30.4,28.4,40.9,34.3,45.2,3.2,2.3,6.6,3.8,9.3,5.1,4.7,2.1,9.8,1.1,11.4-.9,2-3,.1-6-4-8.4-6.8-4-25.6-11.9-41.5-42.9,5.8-1,13.5-1.6,17.1-1.8,4.6-.3,6.2-3.5,4.6-6.7-1.3-2.5-4.1-3.9-12.8-2.3Z"/>
            <path d="M433.1,546.8c2.9-.3,4.3,3,1.5,3.7-1.4.4-6.1.2-18.8,10-.8.7-1.4.3-.8-.7,5-8.4,13.1-12.3,18.1-13.1Z"/>
            <path d="M365.2,529.1c9.6,10,16.1,8.5,20.7,4.9-1.2,8.5-9.6,8.3-9.6,8.3,0,0-.7,0-1.4,0,9.2,3.2,22.5,10.1,31.3,24.4,1.5,2.5,1.7,2.7,2.7,5.1-2.5-2.2-6.1-4.1-10.9-4.8-5.3-11.3-16.7-17.9-25-22.8,4.6,6.7,2.4,10.3,1.9,15.3,0-3-4.6-7.7-4.6-7.7,0,0-4.5-4.6-6.4-10.5-3.9-15.4-12-17.9-12-17.9,0,0,3.6-4.3,13.2,5.8Z"/>
            <path d="M371.1,354.7c-1.6-3.4-3.6-2.1-2.6.5,23.4,60.5,72.9,114.4,72.9,114.4,9.9,11.9,27.1,27.1,8.2,31.6-5.5,1.3-18.1,12.4,20.5,35.6,5.8,3.5,12,1.2,10.3-4.1-.8-2.6-12.3-9.3-16.6-12.7-7.2-5.8-8.7-7.6.9-11.3,4-1.6,17.5-10.8,9.2-19.5-48-50.9-28.2-140.7-28.2-140.7.5-2.3-1-2.5-1.6-.1,0,0-13.3,45.4-28.7,59.1,3.2,7,12.2,23.2,21.5,43.7-10-12.6-34.9-36.1-66-96.2Z"/>
          </g>
          <path d="M578.4,466.3c-3.6.9-5.5,2.9-5.5,2.9l-8.6,9c-2.9,2.9-14.8,14.7-20.6,15.2-.8,0-2.1-.9-2.8-1.4-.5-.3-20.2-14-33.2-19.3-1.2-.5-2.1-.2-.4.7,34.9,18.7,42.5,43.3,42.3,48,0,.6.1,1.1.7,1.4,2.2,1.3,4.5,2.7,5.8,3.4.6.3.8,0,.8-.4,1.7-13.3-4.5-16.5-4.5-19.4s17.3-21.9,17.6-21.2c3.6,6.5,6.2,8.2,12.4,9.4,0,0-2.5-2-2.8-3.3,1-.3,2.5-.8,1-3.8-1.9-3.9-3.9-7.2,5.8-11,24.8-5.9,15.3,8.2,22.2,6.2,1.3,1.6.7,3.8.7,3.8,5.2-5.7,1.9-11.6,1.9-11.6,0,0,3.9-.9,4.1,2.7.3,6.9,4.2,5.2,4.2,5.2.8,1.4.7,3.5.7,3.5,3.3-5.9,2.3-10.3,2.1-12.6,0-.9-1.1-3.2-2.1-4.1-2.8-2.8-7.8-11.7-42-3.2Z"/>
        </g>
        <path d="M391.3,602.5c-6.4-1.9-10.5-7.5-10.5-14.6s7-15.6,15.6-15.6,2.7.2,4,.6c0,0,0,0,0,0,8.3,2,11.2,8.5,11.9,10.3,4.1,11.3-4.1,27.7-8.3,34.4-3.5,5.5-7.2,15.7.1,19.1,20.9,7,25.4-18.9,28-29.2,3.7-15.7,9.2-25.1,22.8-36.5,1.2-1,2.2-1.8,3.1-2.6-1.4-.9-3.2-2-5.4-3.1-14.4-7.3-18.6-6.6-19.6-6.5-.4,0-.4-.2-.1-.7,1.6-2.8,8.9-2.8,18.7-.3,18.1,5.8,18.7,4.1,26.9-3.8,1.4-1.3,2.8-2.7,4.6-4.5,10.3-11.4,3.3-31.1,3.3-31.1-2.6-7.3-8.9-18.9-8.9-18.9l-3.6-7.2c-9.3-18.1-18-35.2-15.9-45.4,1.6-5.8,4.3-8.3,8-11.7-.2-3-2.6-5.3-3.7-6.2-.4-.3-.4-.5,0-.8,2.6-3.1,2.2-6.5-.8-10-.3-.4-.4-.6.2-1,3.2-3.1,3.7-5.6,1.7-10-.1-.3,0-.5.3-.7,2.6-1.4.5-6.9,8.7-15.8.8-.8,1.1-.2.9.6-.9,6.8,4.2,10.6,6,15.3,1-1.7-.6-4,2.2-7,.8-.7,1-.6.9.5-.8,8.8,8.7,10.8,6.1,22.6,0,0,5.5-3.1,21.8-4.7,2.9-.3,6.6.5,5.7,3.7-.2.6-1.5,1.4-3.4,1.8-3.5.5-10.6,2.3-10.6,2.3h0c-1.7.4-3.7,1.1-5.2,1.6-4.1,1.3-1.5,2.4-1.5,2.4,5.4,2.1,6.5,2.4,8.5,3.8.1.1,1,.6,2.1.7,2.1.2,4.1-.5,4.2-2.7,0-1.3,0-1.6-.3-2.4-.7-1.6,6.9-3.5,9.8-4,5.8-1.1,14.6-1.5,21.9-.7,1.6,0,10.6,1,11.7,4.6-2.9-2.9-8.9-2.4-10.2-1.9-1.2,10.7-3.7,11.8-13.9,13.9l-27,4.3c-6.4.8-5.9,7-2.1,6.7l9.4-.9,3.8-.3h1.1c5.5-3.2,12.8-6.3,22.1-3,2.4.7,6.4,0,10.6-2.9-1.7-1.6-3.7-3.5-4.1-5.2,0,0,10,4.7,13.9-3.1.4,7.7-3.2,12.6-12.5,16,.2-1.9.7-3.6,2.1-4.8h0c-1.5,1-3.3,1.8-5.5,2.4-4,.9-7.6-.2-8.8-.5,0,.1,0,.2,0,.3.2,2.1,1.1,8,4.5,10.5.3.2.3.4,0,.4-7.3.6-11-2.2-11-2.2,0,0,0,5.5,2.6,7.9.3.2.2.4,0,.4-16.3,0-18.4-5.9-43.1-6.7-.3,0-.5-.2-.6-.3-1.6-3.4-4.7-8-8.5-9.7-.2,0-.2-.2,0-.4,4-4.3,3.5-12.1,3.4-14.7,0-.6-.3-.5-.5-.1-2.9,5.9-6.1,12.1-15,13.9-.3,0-.3.2-.1.3,10.4,4.4,14.1,14.7,14.7,17.9,3.6-1.2,6.4-1.1,9.3-.4.3.1.3.2,0,.4-3,1.5-4.9,2.6-5.7,6.5-.6,3.4.2,6.6,4.1,9.8l96.9,69.4c4.3,3.3,5.3,10.3,7.3,17,1.3,6,5,32.7-14.2,36.3-2.3.4-7.4,1.5-11.1-3.1,0,0,1.8.5,3.3-.2,0,0-1.1-2.9,3.7-3,3.5,0,2.9-3.9,2.9-3.9,0,0-6.7,2.3-9.6-2.8,0,0,1.8.7,3.5,0-.6-7.8,14.4,3.7,11.1-18.5-2.8-8.3-8.3-6.8-11.6-5.7-3.1,1.1-4.1-.9-4.3-1.9-1.4.2-3.1,2-3.1,2,.9-5.8,6-8,13.8-10.2l-5-3-17.8-8.3s-11.7,23.3-28.6,39.4c11.6,0,17.2,1.1,21.5,3,0,0,2,.6,4.1,3.5,2.3,3.3,4.3,8.7.6,17.3-2.7,6.5-8.4,14.6-19.4,24.9-10,9.2-16,22,2.6,29.5,5.4,2.2,10.8,2.7,13.2,3.6,0,0,9.1-2.6,14.8-5.5,5.1-2.5,12.1-2,16.9,1.6,1,1,1.4,1.4,1.7,2.1,1.5,2.8,1.9,4.8.2,8,0,0-1.6-4.7-3.7-4-4.8,3.8-2.7-3.1-9-.7,0,0,4.9,2.5,1.8,8.8,0,0-1.3-4.4-3-3.6-6.1,2.7-1.4-3.3-15.4.7l-17.7,7.4c-1.7.7-5.2,2.3-9.6,4.9-1.3-4.4,5.6-9.2,6.4-9.8,0,0-11.1-12.6-21.7-17.8-2.4-1.2-4.6-2.1-6.2-3.4-2.4-2.4-2.7-5.7,1.5-10.9.9-.9,22.9-22.6,30.1-32.1,7.2-9.5,7.3-14.9.9-16.7l-25.2-2c-.2,0-9.9-.6-15.1-1-1.2-.3-.9-1.1,0-1.3,8.4-3.3,31.6-15.1,49.4-48.4-8.1-2.8-16.4-.3-20.3,1.1-1,.5-2.4.6-3.5,0l-10.6-7.1c.5,1.9,2.5,6.3,3.8,9,.8,1.7,0,2.6-.3,3.2-5.8,9.5-12.4,19.1-22.5,28.3-1,.9-1.9,1.9-2.8,3-4.5,5.8-5.5,14.8,2.9,27.3l.4.7c1.3,2.2,3.7,7.4,2.7,15-.3,1.8-.7,3.7-1.4,5.8-.3,1-.6,2.1-.9,3.1-4.4,13.9-22.5,33-48.6,47.9-1.3.7-2.5,1.4-3.8,2.2l11.3,27.6s6.7-1.5,12.5-4.7c4.1-2.3,11.8-3.7,16.9-.5,1.1.9,1.1,1,1.9,2,1.7,3.2,1.5,6.2,0,8.3,0,0-2-5.6-3.2-4-4.4,4.2-2.6-1.6-7.6.6,0,0,3.6,4.1.3,8.5,0,0-1-4-2.9-3.2-5.9,3.2-1.4-3.1-15,2.1,0,0-15.5,7.6-26.7,8.1,1.2-3.7,8.8-8.5,8.8-8.5-.8-16.4-5.9-32.5-10.2-41.8-5-10.7,16.7-8.1,19-19.7l2.3-15.4c3.1-19.2,3.8-25.1,6.8-34.3,2.5-7.6,10.2-24.1,9.8-26.7-.2-.5-.8-.2-1.3.2-3.5,3.4-17.7,19.6-19.6,57.2,0,0,0,.6-1.6,2.2-18.2,16.7-41,13.7-48.6,5.4-14.8-16.2-3.3-33.9,3.9-41,7.1-7.1,9-12.9,7.9-18.8-.5-2.4-1-3-1-3-1-1.8-2.9-2.9-5.1-2.9-3.3,0-6,2.7-6,6s2.7,6,6,6c0,0-.2,4.1-5.2,8.5"/>
      </g>
      <g>
        <g>
          <g>
            <path d="M1003.2,384.2c-8.5,15.5-6.2,36.1,1.6,49.8,1.3,2.1,3.5,1.4,2.6-.9-6.1-24-3.4-42.2-1.9-49.2.4-2-.8-2.2-2.3.4Z"/>
            <path d="M1004,451.3c-9.6,11.2-11.3,34.9-7.2,47.5.7,2,3.4,2.1,3.1,0-1-20.7,4.5-41.5,6.9-47.1.8-1.6-1-2.2-2.7-.4Z"/>
            <path d="M994,511.7c1.4-.8.5-2.3-1.9-1.8-13.7,3.3-29.6,23.4-33.5,35.4-.6,1.9,1.1,3.6,2.4,1.7,10.8-16.5,28-32.3,33-35.3Z"/>
            <path d="M991,451.9c2-1.2,5.2-5.4,30.5-10.2,1.8-.3,1.9-1.7,0-1.8-16.4-.5-26.7,3.2-33.3,8.4-2.5,1.9-2,6.5,2.8,3.6Z"/>
            <path d="M949.5,487.6c3.1.6,9.3,1.7,12.7,2.6,7.9-18.2,15.1-34.6,18.7-69.1.3-2.3,1.7-1.9,1.7.2,0,35.9-5.2,52.3-11.9,71.5,9.7,3.2,20.6,7.7,36,15.6,1,.5.6,2-.8,1.6-15.5-4.8-27.5-7.6-38.1-9.7-12.5,30.4-28.4,40.9-34.3,45.2-3.2,2.3-6.6,3.8-9.3,5.1-4.7,2.1-9.8,1.1-11.4-.9-2-3-.1-6,4-8.4,6.8-4,25.6-11.9,41.5-42.9-5.8-1-13.5-1.6-17.1-1.8-4.6-.3-6.2-3.5-4.6-6.7,1.3-2.5,4.1-3.9,12.8-2.3Z"/>
            <path d="M943.8,546.8c-2.9-.3-4.3,3-1.5,3.7,1.4.4,6.1.2,18.8,10,.8.7,1.4.3.8-.7-5-8.4-13.1-12.3-18.1-13.1Z"/>
            <path d="M1011.6,529.1c-9.6,10-16.1,8.5-20.7,4.9,1.2,8.5,9.6,8.3,9.6,8.3,0,0,.7,0,1.4,0-9.2,3.2-22.5,10.1-31.3,24.4-1.5,2.5-1.7,2.7-2.7,5.1,2.5-2.2,6.1-4.1,10.9-4.8,5.3-11.3,16.7-17.9,25-22.8-4.6,6.7-2.4,10.3-1.9,15.3,0-3,4.6-7.7,4.6-7.7,0,0,4.5-4.6,6.4-10.5,3.9-15.4,12-17.9,12-17.9,0,0-3.6-4.3-13.2,5.8Z"/>
            <path d="M1005.7,354.7c1.6-3.4,3.6-2.1,2.6.5-23.4,60.5-72.9,114.4-72.9,114.4-9.9,11.9-27.1,27.1-8.2,31.6,5.5,1.3,18.1,12.4-20.5,35.6-5.8,3.5-12,1.2-10.3-4.1.8-2.6,12.3-9.3,16.6-12.7,7.2-5.8,8.7-7.6-.9-11.3-4-1.6-17.5-10.8-9.2-19.5,48-50.9,28.2-140.7,28.2-140.7-.5-2.3,1-2.5,1.6-.1,0,0,13.3,45.4,28.7,59.1-3.2,7-12.2,23.2-21.5,43.7,10-12.6,34.9-36.1,66-96.2Z"/>
          </g>
          <path d="M798.4,466.3c3.6.9,5.5,2.9,5.5,2.9l8.6,9c2.9,2.9,14.8,14.7,20.6,15.2.8,0,2.1-.9,2.8-1.4.5-.3,20.2-14,33.2-19.3,1.2-.5,2.1-.2.4.7-34.9,18.7-42.5,43.3-42.3,48,0,.6-.1,1.1-.7,1.4-2.2,1.3-4.5,2.7-5.8,3.4-.6.3-.8,0-.8-.4-1.7-13.3,4.5-16.5,4.5-19.4s-17.3-21.9-17.6-21.2c-3.6,6.5-6.2,8.2-12.4,9.4,0,0,2.5-2,2.8-3.3-1-.3-2.5-.8-1-3.8,1.9-3.9,3.9-7.2-5.8-11-24.8-5.9-15.3,8.2-22.2,6.2-1.3,1.6-.7,3.8-.7,3.8-5.2-5.7-1.9-11.6-1.9-11.6,0,0-3.9-.9-4.1,2.7-.3,6.9-4.2,5.2-4.2,5.2-.8,1.4-.7,3.5-.7,3.5-3.3-5.9-2.3-10.3-2.1-12.6,0-.9,1.1-3.2,2.1-4.1,2.8-2.8,7.8-11.7,42-3.2Z"/>
        </g>
        <path d="M985.5,602.5c6.4-1.9,10.5-7.5,10.5-14.6s-7-15.6-15.6-15.6-2.7.2-4,.6c0,0,0,0,0,0-8.3,2-11.2,8.5-11.9,10.3-4.1,11.3,4.1,27.7,8.3,34.4,3.5,5.5,7.2,15.7-.1,19.1-20.9,7-25.4-18.9-28-29.2-3.7-15.7-9.2-25.1-22.8-36.5-1.2-1-2.2-1.8-3.1-2.6,1.4-.9,3.2-2,5.4-3.1,14.4-7.3,18.6-6.6,19.6-6.5.4,0,.4-.2.1-.7-1.6-2.8-8.9-2.8-18.7-.3-18.1,5.8-18.7,4.1-26.9-3.8-1.4-1.3-2.8-2.7-4.6-4.5-10.3-11.4-3.3-31.1-3.3-31.1,2.6-7.3,8.9-18.9,8.9-18.9l3.6-7.2c9.3-18.1,18-35.2,15.9-45.4-1.6-5.8-4.3-8.3-8-11.7.2-3,2.6-5.3,3.7-6.2.4-.3.4-.5,0-.8-2.6-3.1-2.2-6.5.8-10,.3-.4.4-.6-.2-1-3.2-3.1-3.7-5.6-1.7-10,.1-.3,0-.5-.3-.7-2.6-1.4-.5-6.9-8.7-15.8-.8-.8-1.1-.2-.9.6.9,6.8-4.2,10.6-6,15.3-1-1.7.6-4-2.2-7-.8-.7-1-.6-.9.5.8,8.8-8.7,10.8-6.1,22.6,0,0-5.5-3.1-21.8-4.7-2.9-.3-6.6.5-5.7,3.7.2.6,1.5,1.4,3.4,1.8,3.5.5,10.6,2.3,10.6,2.3h0c1.7.4,3.7,1.1,5.2,1.6,4.1,1.3,1.5,2.4,1.5,2.4-5.4,2.1-6.5,2.4-8.5,3.8-.1.1-1,.6-2.1.7-2.1.2-4.1-.5-4.2-2.7,0-1.3,0-1.6.3-2.4.7-1.6-6.9-3.5-9.8-4-5.8-1.1-14.6-1.5-21.9-.7-1.6,0-10.6,1-11.7,4.6,2.9-2.9,8.9-2.4,10.2-1.9,1.2,10.7,3.7,11.8,13.9,13.9l27,4.3c6.4.8,5.9,7,2.1,6.7l-9.4-.9-3.8-.3h-1.1c-5.5-3.2-12.8-6.3-22.1-3-2.4.7-6.4,0-10.6-2.9,1.7-1.6,3.7-3.5,4.1-5.2,0,0-10,4.7-13.9-3.1-.4,7.7,3.2,12.6,12.5,16-.2-1.9-.7-3.6-2.1-4.8h0c1.5,1,3.3,1.8,5.5,2.4,4,.9,7.6-.2,8.8-.5,0,.1,0,.2,0,.3-.2,2.1-1.1,8-4.5,10.5-.3.2-.3.4,0,.4,7.3.6,11-2.2,11-2.2,0,0,0,5.5-2.6,7.9-.3.2-.2.4,0,.4,16.3,0,18.4-5.9,43.1-6.7.3,0,.5-.2.6-.3,1.6-3.4,4.7-8,8.5-9.7.2,0,.2-.2,0-.4-4-4.3-3.5-12.1-3.4-14.7,0-.6.3-.5.5-.1,2.9,5.9,6.1,12.1,15,13.9.3,0,.3.2.1.3-10.4,4.4-14.1,14.7-14.7,17.9-3.6-1.2-6.4-1.1-9.3-.4-.3.1-.3.2,0,.4,3,1.5,4.9,2.6,5.7,6.5.6,3.4-.2,6.6-4.1,9.8l-96.9,69.4c-4.3,3.3-5.3,10.3-7.3,17-1.3,6-5,32.7,14.2,36.3,2.3.4,7.4,1.5,11.1-3.1,0,0-1.8.5-3.3-.2,0,0,1.1-2.9-3.7-3-3.5,0-2.9-3.9-2.9-3.9,0,0,6.7,2.3,9.6-2.8,0,0-1.8.7-3.5,0,.6-7.8-14.4,3.7-11.1-18.5,2.8-8.3,8.3-6.8,11.6-5.7,3.1,1.1,4.1-.9,4.3-1.9,1.4.2,3.1,2,3.1,2-.9-5.8-6-8-13.8-10.2l5-3,17.8-8.3s11.7,23.3,28.6,39.4c-11.6,0-17.2,1.1-21.5,3,0,0-2,.6-4.1,3.5-2.3,3.3-4.3,8.7-.6,17.3,2.7,6.5,8.4,14.6,19.4,24.9,10,9.2,16,22-2.6,29.5-5.4,2.2-10.8,2.7-13.2,3.6,0,0-9.1-2.6-14.8-5.5-5.1-2.5-12.1-2-16.9,1.6-1,1-1.4,1.4-1.7,2.1-1.5,2.8-1.9,4.8-.2,8,0,0,1.6-4.7,3.7-4,4.8,3.8,2.7-3.1,9-.7,0,0-4.9,2.5-1.8,8.8,0,0,1.3-4.4,3-3.6,6.1,2.7,1.4-3.3,15.4.7l17.7,7.4c1.7.7,5.2,2.3,9.6,4.9,1.3-4.4-5.6-9.2-6.4-9.8,0,0,11.1-12.6,21.7-17.8,2.4-1.2,4.6-2.1,6.2-3.4,2.4-2.4,2.7-5.7-1.5-10.9-.9-.9-22.9-22.6-30.1-32.1-7.2-9.5-7.3-14.9-.9-16.7l25.2-2c.2,0,9.9-.6,15.1-1,1.2-.3.9-1.1,0-1.3-8.4-3.3-31.6-15.1-49.4-48.4,8.1-2.8,16.4-.3,20.3,1.1,1,.5,2.4.6,3.5,0l10.6-7.1c-.5,1.9-2.5,6.3-3.8,9-.8,1.7,0,2.6.3,3.2,5.8,9.5,12.4,19.1,22.5,28.3,1,.9,1.9,1.9,2.8,3,4.5,5.8,5.5,14.8-2.9,27.3l-.4.7c-1.3,2.2-3.7,7.4-2.7,15,.3,1.8.7,3.7,1.4,5.8.3,1,.6,2.1.9,3.1,4.4,13.9,22.5,33,48.6,47.9,1.3.7,2.5,1.4,3.8,2.2l-11.3,27.6s-6.7-1.5-12.5-4.7c-4.1-2.3-11.8-3.7-16.9-.5-1.1.9-1.1,1-1.9,2-1.7,3.2-1.5,6.2,0,8.3,0,0,2-5.6,3.2-4,4.4,4.2,2.6-1.6,7.6.6,0,0-3.6,4.1-.3,8.5,0,0,1-4,2.9-3.2,5.9,3.2,1.4-3.1,15,2.1,0,0,15.5,7.6,26.7,8.1-1.2-3.7-8.8-8.5-8.8-8.5.8-16.4,5.9-32.5,10.2-41.8,5-10.7-16.7-8.1-19-19.7l-2.3-15.4c-3.1-19.2-3.8-25.1-6.8-34.3-2.5-7.6-10.2-24.1-9.8-26.7.2-.5.8-.2,1.3.2,3.5,3.4,17.7,19.6,19.6,57.2,0,0,0,.6,1.6,2.2,18.2,16.7,41,13.7,48.6,5.4,14.8-16.2,3.3-33.9-3.9-41-7.1-7.1-9-12.9-7.9-18.8.5-2.4,1-3,1-3,1-1.8,2.9-2.9,5.1-2.9,3.3,0,6,2.7,6,6s-2.7,6-6,6c0,0,.2,4.1,5.2,8.5"/>
      </g>
    </g>
  </g>
  <g id="Helmet">
    <g>
      <path d="M723.4,265.1c-3.8,14.2.6,27.8,9.6,37.4,1.4,1.5,3.1.4,2-1.3-9.8-18.1-9.5-30.8-9.8-36.8,0-1.7-1.1-1.6-1.8.8Z"/>
      <path d="M729.9,319.1c-6,6.6-6.9,17-5,24.7.4,1.7,2.4,1.4,2.2,0-.2-12.5,3.3-21.2,4.8-24.5.6-1.2-.9-1.5-2-.3Z"/>
      <path d="M744.6,308.3c-10.2-.6-21.3,2.6-25.5,5.7-1.7,1-.4,4.4,2.3,2.8,1.2-.7,6.7-5.1,23.2-7.4,1.1-.2,1.3-1,0-1.1Z"/>
      <path d="M677.3,379.4c1.8,0,3.8.4,5.4-3.2,2.7-7.3,3-19.5-5.4-25-13.4-8.9-5.4-13.4,1.1-21.9,35.4-42.2,49.3-90.6,50.1-92.9.7-2.2,0-3.3-1.3-.1-17.2,46.9-54.5,84.5-60.5,91.8-6,7.3-18.7,16.6-2.4,26.3,12.7,7.6,8.7,16.6,6.8,21.7-.6,1.7-.2,3.6,1.9,3.5h4.3Z"/>
      <path d="M734.8,354c-8.3-5.1-17.1-8.5-24.8-10.9,5.6-25.8,4-46.7,3.8-47.9-.2-1.7-1.1-3.2-1.5,0-1.5,15.7-5.1,32-9.2,45.9-3.2-.8-6.2-1.5-8.7-2-5.9-1.3-9.7-1.4-11.1.8-1.6,2-.5,4.7,2.9,5.2,4.9.3,10.1,1.1,15.1,2-4.6,14.4-9.3,25.6-12.1,29.5-1,1.3-.5,2.5,1.9,2.9,6,.8,6.7-1.1,7.4-2.5,4.6-9.5,7.9-19.2,10.2-28.4,12.8,2.9,23.5,6.5,25.4,7.2,3,1.2,3.1-.6.7-1.8Z"/>
      <path d="M722.5,356.6c-8.2,3.4-13.7,13.5-15.2,21.3-.3,1.7,1.2,2.3,2,1,5.1-11.4,12.1-18.9,15-21.2.9-.9-.2-1.7-1.7-1.2Z"/>
      <path d="M555.6,336.1c1.2,6.3,1.7,10.6,9.8,13.3.5.2,1,0,.7-.8-4.9-11.5,1.1-14.4,1.9-14.8.4-.2,7.9-4.3,19.3,3.2,1.1.7,1.1.1.7-.5-5.7-8.7-13.1-15.4-24.4-15.8-8.4-.2-25.6,6.1-34.5-.9-.5-.4-1-.4-.7.4,5.9,12,17,19.4,27.2,15.7Z"/>
      <path d="M555.3,384.8c-2.7-2-7.8-8.6-5.3-14.6,0,0,1.4-7.8,13-9.8.4,0,.5-.3,0-.5-7.3-2.9-14.6-2.1-22.3,4.7-5.7,5.2-14.7,21-23.5,20.5-.3,0-.4.2-.1.3,9.8,5.3,19.3,4,24.6-5,3.4,3.8,5.8,6.8,13.4,4.8.4-.1.4-.3.2-.4Z"/>
      <path d="M602.9,437.6c-.2,1,.3,1.1.9.4,5.3-5.3,9.2-8.9,18.6-11.7,0,4.1-1,11.2,4.2,18.5.4.6.6.2.6-.2-.6-22.5,20.2-37.4,28.9-43.7.8-.7.4-1.1-1.3-.8-7.9,2-13.7,3.9-18.3,5.8-4,1.7-28.9,12.6-33.6,31.6Z"/>
      <path d="M774.4,437.6c.2,1-.3,1.1-.9.4-5.3-5.3-9.2-8.9-18.6-11.7,0,4.1,1,11.2-4.2,18.5-.4.6-.6.2-.6-.2.6-22.5-20.2-37.4-28.9-43.7-.8-.7-.4-1.1,1.3-.8,7.9,2,13.7,3.9,18.3,5.8,4,1.7,28.9,12.6,33.6,31.6Z"/>
      <path d="M587.1,401.7c-2.2,5-4.3,8.4-3.6,15.8,0,.4.3.3.4,0,10.1-16.8,48.3-20.9,62.5-22.2.7-.1,1.9-.7.4-1.2-11.9-4.2-24.4-11.9-24.4-11.9-6.3-4-21.9-16.9-7.8-29.9.3-.2.2-.3-.2-.3-5.3.7-14.6,3.2-13.8,12.7-4.8-15.1-8.5-20.7-21.6-23.8-.7-.1-1,0-.6.7,5.1,6,10.7,15.2,11.2,25-4-2.2-15.4-5.2-26.2,1.8-.3.2-.5.5,0,.5,9.5,0,16.9-.7,30.8,8.6,8.1,6.1,26.5,13.5,32.8,13.9-15.2,1.6-48.3,4.5-56.8-9.2,0-.2-.3-.3-.5,0-3.7,2.8-2.8,7.4,2.9,10.9-8.7,2.4-17.1,3.7-22.1,18.4-.3.8.1.5.5.2,6.8-5.8,18.8-12.5,36-9.9Z"/>
      <path d="M808.9,333.8c.8.4,6.8,3.2,1.9,14.8-.3.8.2,1,.7.8,8.1-2.8,8.6-7,9.8-13.3,10.2,3.7,21.3-3.7,27.2-15.7.3-.8-.2-.8-.7-.4-8.9,6.9-26.1.7-34.5.9-11.2.3-18.7,7-24.3,15.8-.5.6-.4,1.2.7.5,11.3-7.5,18.8-3.5,19.2-3.2Z"/>
      <path d="M859.6,385.2c-8.8.5-17.8-15.3-23.5-20.5-7.7-6.9-15-7.6-22.3-4.7-.4.2-.3.5,0,.5,11.6,2,13,9.8,13,9.8,2.4,5.9-2.7,12.6-5.3,14.6-.2.1-.2.3.2.4,7.6,2,10-.9,13.4-4.8,5.2,9.1,14.7,10.4,24.5,5,.3-.1.2-.4,0-.3Z"/>
      <path d="M804.2,392.9c5.7-3.5,6.6-8.1,2.9-10.9-.2-.2-.4-.1-.5,0-8.5,13.8-41.6,10.8-56.8,9.2,6.3-.3,24.7-7.7,32.8-13.9,13.9-9.3,21.4-8.6,30.9-8.6.6,0,.4-.4,0-.5-10.8-7-22.2-4-26.2-1.8.5-9.8,6-19,11.1-25,.5-.6,0-.8-.6-.7-13.1,3.1-16.8,8.7-21.6,23.8.8-9.4-8.4-12-13.8-12.7-.3,0-.4.1-.2.3,14.1,13-1.5,25.9-7.8,29.9,0,0-12.5,7.6-24.5,11.9-1.5.5-.3,1.1.4,1.2,14.2,1.4,52.4,5.4,62.5,22.2.1.3.4.4.4,0,.8-7.4-1.4-10.9-3.6-15.8,17.2-2.6,29.3,4.1,36,9.9.3.3.8.5.5-.2-5-14.7-13.3-16.1-22.1-18.4Z"/>
      <path d="M675.4,391.8c.5,1.2,2,2.1,3.3,2.1h3.9c1.3,0,1.9-.9,1.3-2.1l-2.2-4.8c-.5-1.2-2-2.1-3.3-2.1h-3.9c-1.3,0-1.9.9-1.3,2.1l2.2,4.8Z"/>
      <path d="M692.6,391.8c.5,1.2,2,2.1,3.3,2.1h3.9c1.3,0,1.9-.9,1.4-2.1l-2.3-4.9c-.5-1.2-2-2.1-3.3-2.1h-4c-1.3,0-1.9,1-1.3,2.2l2.2,4.8Z"/>
      <path d="M707.9,388.8l1.4,3c.5,1.1,1.7,2.2,3.2,2.1.6,0,1-.2,1-.2,1.9-.5,3.4-2.2,3.4-4.3,0-2.5-2-4.5-4.5-4.6h-3.9c-1.3,0-1.9.9-1.3,2.1l.8,1.8Z"/>
      <path d="M664.7,393.5c.5.2,1.2.3,1.2.3,1-.1,1.4-1,1-2.1l-2.5-5.4c-.2-.4-.3-.7-.5-.7-.4,0-2,.9-2.2,3.8-.1,2,1.3,3.6,3,4.2Z"/>
      <path d="M712.2,399.4h-45c0,0-1.1,3.9-1.1,3.9h-1.6c-3.5.5-4.8.9-6.1,3.4,0,0-9.8,18.5,3.2,34.6,2,2.4,5.4,5.8,7.5,6.2,2.2,3.1,7.4,2,7.4,2,5-1.2,21.5-7.9,27.6-12.9,6.3-5.2,10.3-7.4,8-37.2ZM671,437h0s0,0,0,0ZM671,440.7c-.5.3-1.3.5-2.6-.6-1.2-1-6.3-6.7-7.4-14.3-.1-1.1-.2-2.2-.2-3.3,0-6.3,2.4-13.3,4.7-13.6.5,0,1,0,1.5.4.6.4.8,1.1.8,1.7s0,.6-.1.9c-.2,1-.7,3.7-.7,7.3s.1,3.4.4,5.2c1,7.3,3.1,11.4,3.8,12.7l.3.6s.2.4.2.4c.4.8.2,2.1-.5,2.6ZM681.3,437.2c-.7.6-2,.3-2.7-.2-1.2-1-5.7-6.1-6.6-12.8-.1-.9-.2-1.9-.2-2.8,0-5.8,2.2-12.1,4.3-12.4h.3c1.3,0,2,.6,2,1.7v1.1c-.2.5-.7,3.3-.7,6.5s0,3.1.3,4.5c.9,6.3,2.7,9.9,3.4,11.3h0c.4.9.5,1.5.5,1.9,0,.7-.3,1.1-.5,1.2ZM691.3,433.3c-.3.3-1.1.7-2.5-.1-.9-.6-4.9-5.4-5.7-11-.1-.7-.2-1.5-.2-2.4,0-4.1,1.5-10.4,3.9-10.7,0,0,1-.2,1.7.4.4.4.6.9.5,1.6v.6c0,0-.1.2-.1.2-.1.7-.6,2.6-.6,5.4s.1,2.5.3,3.8h0c.7,5.2,2.2,8.2,2.8,9.4.5.9.6,2.3-.1,3Z"/>
    </g>
    <path d="M673.9,488c11.9,2.9,18.4-7.9,20-12.8,2.1,2.1,5.7,4.4,11.6,2,1.8-.8,3.8-2,6.2-3.9,1.6-1.3,3.3-2.9,5.2-4.9,9.1-9.5,14.5-10.5,17.4-9.6,1.6.5,2.4,1.5,2.8,2,.1.2.2.4.4.7.5,1.3.7,3.5-.7,6.1-.8,1.5-2.1,3.1-4.4,4.6,1.9-.2,4.7-1.4,6.4-3.6.8-1.1,1.9-3,2.1-4.6,1.2-12.1-12.7-14.3-12.7-14.3-.9-.2-2.3-.2-3.7,0-8.1,1.3-22.5,8.6-27.9,12.1,13.6-15.3,23-17.4,23-17.4,0,0-.4-.3-.9-1-1-1.3-2.6-4-4.4-9-7,10.5-25.6,15.8-39,17.7-3.2,2.7-11.3,12.4-12.1,21.3-.4,4.7,0,12.2,10.4,14.7Z"/>
  </g>
</svg>